<?xml version="1.0" encoding="UTF-8" standalone="no" ?>
<!DOCTYPE svg PUBLIC "-//W3C//DTD SVG 1.1//EN" "http://www.w3.org/Graphics/SVG/1.1/DTD/svg11.dtd">
<svg xmlns="http://www.w3.org/2000/svg" xmlns:xlink="http://www.w3.org/1999/xlink" version="1.1" width="32" height="32" viewBox="0 0 320 320" xml:space="preserve">
<desc>Created with Fabric.js 5.3.0</desc>
<defs>
</defs>
<g transform="matrix(1 0 0 1 161.0552933814 160.2835857584)" id="pYiNHrNj5qXFI1VvfwcSH"  >
<g style=""   >
		<g transform="matrix(3.5791468985 0 0 3.7316692668 0 -0.2835857584)" id="HIebRXhFJ8Rw6syzSzzgc"  >
<path style="stroke: none; stroke-width: 1; stroke-dasharray: none; stroke-linecap: butt; stroke-dashoffset: 0; stroke-linejoin: miter; stroke-miterlimit: 4; fill: rgb(179,181,179); fill-rule: nonzero; opacity: 1;"  transform=" translate(-40, -40)" d="M 60.214 56.561 L 60.214 46.09 L 19.786 46.09 L 19.786 56.56 L 0 40 L 19.786 23.439 L 19.786 33.938 L 60.214 33.938 L 60.214 23.439 L 80 40 L 60.214 56.561 z" stroke-linecap="round" />
</g>
		<g transform="matrix(0 3.586149016 -2.8112324493 0 4e-10 0)" id="4F_q35JdcdIoSmzyqy1-e"  >
<path style="stroke: none; stroke-width: 1; stroke-dasharray: none; stroke-linecap: butt; stroke-dashoffset: 0; stroke-linejoin: miter; stroke-miterlimit: 4; fill: rgb(179,181,179); fill-rule: nonzero; opacity: 1;"  transform=" translate(-40, -40)" d="M 60.214 56.561 L 60.214 46.09 L 19.786 46.09 L 19.786 56.56 L 0 40 L 19.786 23.439 L 19.786 33.938 L 60.214 33.938 L 60.214 23.439 L 80 40 L 60.214 56.561 z" stroke-linecap="round" />
</g>
</g>
</g>
<g transform="matrix(1.2303554706 0 0 1.2303554706 161.0552933818 158.785925852)" id="rtIz5ixrjecgTPgRRdIFH"  >
<path style="stroke: rgb(172,59,78); stroke-width: 0; stroke-dasharray: none; stroke-linecap: butt; stroke-dashoffset: 0; stroke-linejoin: miter; stroke-miterlimit: 4; fill: rgb(33,33,33); fill-rule: nonzero; opacity: 1;"  transform=" translate(0, 0)" d="M 0 -117.81591 C 65.03438 -117.81591 117.81591 -65.03438 117.81591 0 C 117.81591 65.03438 65.03438 117.81591 0 117.81591 C -65.03438 117.81591 -117.81591 65.03438 -117.81591 0 C -117.81591 -65.03438 -65.03438 -117.81591 0 -117.81591 z" stroke-linecap="round" />
</g>
<g transform="matrix(1.0821055064 0 0 0.5567822004 234.7716964885 119.4513294131)" id="qYXyO6RXZ3Nn-xKygeFu5"  >
<path style="stroke: none; stroke-width: 1; stroke-dasharray: none; stroke-linecap: butt; stroke-dashoffset: 0; stroke-linejoin: miter; stroke-miterlimit: 4; fill: rgb(29,185,84); fill-rule: nonzero; opacity: 1;"  transform=" translate(-0.000005, 0.0000042098)" d="M 2.0975 27.97379 C 2.0975 28.95872 2.3523500000000004 29.87763 2.7756800000000004 30.4191 C 3.1990100000000004 30.96057 3.7340600000000004 31.05201 4.199520000000001 30.66244 L 38.33878 2.0885 L 38.33878 2.0885 C 38.78404 1.7158299999999997 39.0725 0.8639799999999997 39.0725 -0.0782200000000004 C 39.0725 -1.0204200000000005 38.78404 -1.8722600000000005 38.33878 -2.2449400000000006 L 4.415770000000002 -30.63788 L 4.415770000000002 -30.63788 C 3.902430000000002 -31.067539999999997 3.312330000000002 -30.96669 2.8454500000000023 -30.36951 C 2.378570000000002 -29.772329999999997 2.0975100000000024 -28.758889999999997 2.0975100000000024 -27.672629999999998 L 2.0975100000000024 -11.973219999999998 L -37.62897 -11.973219999999998 L -37.62897 -11.973219999999998 C -38.4262 -11.973219999999998 -39.07249 -10.717159999999998 -39.07249 -9.167739999999998 L -39.07249 11.87378 L 2.0975099999999998 11.87378 z" stroke-linecap="round" />
</g>
<g transform="matrix(1.0944511855 0 0 0.5567822004 235.1412504406 201.2730501477)" id="D4XxEF9dr2WIqgDWZmwYy"  >
<path style="stroke: none; stroke-width: 1; stroke-dasharray: none; stroke-linecap: butt; stroke-dashoffset: 0; stroke-linejoin: miter; stroke-miterlimit: 4; fill: rgb(29,185,84); fill-rule: nonzero; opacity: 1;"  transform=" translate(0, -0.0000129173)" d="M 2.20623 26.51573 C 2.20623 27.8976 2.559 29.187260000000002 3.1454400000000002 29.94932 C 3.7318800000000003 30.71138 4.47373 30.84413 5.1205300000000005 30.30277 L 38.15186 2.6561500000000002 L 38.15186 2.6561500000000002 C 38.64421 2.2440700000000002 38.96377 1.2938600000000002 38.96377 0.24199000000000037 C 38.96377 -0.8098799999999997 38.6442 -1.7600899999999995 38.15186 -2.1721699999999995 L 4.452159999999999 -30.3782 L 4.452159999999999 -30.3782 C 3.953689999999999 -30.79541 3.3819799999999995 -30.6931 2.930039999999999 -30.105809999999998 C 2.478089999999999 -29.51852 2.2062299999999992 -28.524639999999998 2.2062299999999992 -27.45969 L 2.2062299999999992 -11.652999999999999 L -38.963770000000004 -11.652999999999999 L -38.963770000000004 9.68196 L -38.963770000000004 9.68196 C -38.963770000000004 11.06932 -38.39161000000001 12.193999999999999 -37.68582000000001 12.193999999999999 L 2.206229999999991 12.193999999999999 z" stroke-linecap="round" />
</g>
<g transform="matrix(1.1972034437 0 0 1.1860251872 165.2964447086 160.4077786518)" id="b2Gl_3JCAoDAjaBz_ms6x"  >
<path style="stroke: none; stroke-width: 1; stroke-dasharray: none; stroke-linecap: butt; stroke-dashoffset: 0; stroke-linejoin: miter; stroke-miterlimit: 4; fill: rgb(29,185,84); fill-rule: nonzero; opacity: 1;"  transform=" translate(-0.00001, 0)" d="M 23.32756 40 L -0.03844000000000136 16.634 L -23.40444 40 L -32.15374 29.12048 L -4.841619999999999 -0.3438200000000009 L -33.581239999999994 -28.83423 L -24.446899999999992 -40 L -0.03842999999999108 -16.634 L 23.32757000000001 -40 L 33.58126000000001 -28.834229999999998 L 5.753870000000006 -0.34381999999999735 L 33.58126000000001 28.83423 z" stroke-linecap="round" />
</g>
<g transform="matrix(1 0 0 0.306179778 115.3198104859 119.4077786512)" id="u1-UohItMWTch201UxqdD"  >
<path style="stroke: rgb(212,126,41); stroke-width: 0; stroke-dasharray: none; stroke-linecap: butt; stroke-dashoffset: 0; stroke-linejoin: miter; stroke-miterlimit: 4; fill: rgb(29,185,84); fill-rule: nonzero; opacity: 1;"  transform=" translate(0, 0.000005)" d="M -22.21529 -22.21529 L 19.8762 -22.21529 L 19.8762 -22.21529 C 21.16804 -22.21529 22.21529 -18.79493 22.21529 -14.57571 L 22.21529 21.53593 L 22.21529 21.53593 C 22.21529 21.91113 22.12216 22.21528 22.00729 22.21528 L -22.215279999999996 22.21528 z" stroke-linecap="round" />
</g>
<g transform="matrix(1 0 0 0.306179778 115.3198104859 201.407778652)" id="FIy1LVuqdNCLRiyBG66ui"  >
<path style="stroke: rgb(212,126,41); stroke-width: 0; stroke-dasharray: none; stroke-linecap: butt; stroke-dashoffset: 0; stroke-linejoin: miter; stroke-miterlimit: 4; fill: rgb(29,185,84); fill-rule: nonzero; opacity: 1;"  transform=" translate(0, 0)" d="M -22.21529 -22.21529 L 22.21529 -22.21529 L 22.21529 17.11156 L 22.21529 17.11156 C 22.21529 19.93027 21.51566 22.21529 20.65263 22.21529 L -22.21529 22.21529 z" stroke-linecap="round" />
</g>
<g transform="matrix(1 0 0 0.9871455529 79.2655040831 160.4077786515)" id="o3gpe1lgAknHa8UMksWcA"  >
<path style="stroke: rgb(247,183,38); stroke-width: 0; stroke-dasharray: none; stroke-linecap: butt; stroke-dashoffset: 0; stroke-linejoin: miter; stroke-miterlimit: 4; fill: rgb(29,185,84); fill-rule: nonzero; opacity: 1;"  transform=" translate(-8.582e-7, -0.000005)" d="M 13.83902 -48.42434 C 40.56926 -48.42434 33.82735 -23.69591 33.82735 3.034329999999997 C 33.82735 29.764569999999996 40.569250000000004 48.42435 13.839020000000001 48.42435 C -12.891219999999997 48.42435 -34.585319999999996 26.730249999999998 -34.585319999999996 0.000009999999996068709 C -34.585319999999996 -26.730230000000002 -12.891219999999997 -48.424330000000005 13.839020000000005 -48.424330000000005 z" stroke-linecap="round" />
</g>
<g transform="matrix(1.8888885001 0 0 1.907221471 90.6146645866 160.3294786518)" id="aoZEEjlYDMo4OQ_T1tfB5"  >
<path style="stroke: rgb(73,51,167); stroke-width: 0; stroke-dasharray: none; stroke-linecap: butt; stroke-dashoffset: 0; stroke-linejoin: miter; stroke-miterlimit: 4; fill: rgb(33,33,33); fill-rule: nonzero; opacity: 1;"  transform=" translate(0, 0)" d="M 0 -17.97192 C 9.9205 -17.97192 17.97192 -9.9205 17.97192 0 C 17.97192 9.9205 9.9205 17.97192 0 17.97192 C -9.9205 17.97192 -17.97192 9.9205 -17.97192 0 C -17.97192 -9.9205 -9.9205 -17.97192 0 -17.97192 z" stroke-linecap="round" />
</g>
<g transform="matrix(1 0 0 1.2342905004 104.3369734789 160.4077786518)" id="DxkNoTrn_obKQ2l0r4jIY"  >
<path style="stroke: rgb(68,138,217); stroke-width: 0; stroke-dasharray: none; stroke-linecap: butt; stroke-dashoffset: 0; stroke-linejoin: miter; stroke-miterlimit: 4; fill: rgb(33,33,33); fill-rule: nonzero; opacity: 1;"  transform=" translate(0.000005, 0)" d="M -27.70671 -18.18305 C -27.70671 -23.44282 -22.443830000000002 -27.70671 -15.95175 -27.70671 L 15.951740000000001 -27.70671 L 15.951740000000001 -27.70671 C 22.443830000000002 -27.70671 27.7067 -23.44282 27.7067 -18.18305 L 27.7067 18.18305 L 27.7067 18.18305 C 27.7067 23.44282 22.443820000000002 27.70671 15.951740000000001 27.70671 L -15.95175 27.70671 L -15.95175 27.70671 C -22.44384 27.70671 -27.70671 23.44282 -27.70671 18.18305 z" stroke-linecap="round" />
</g>
<g transform="matrix(1 0 0 1 79.2655040831 148.2683307332)" id="Q_zQqXCXjdvvx-NXJxsex"  >
<path style="stroke: rgb(91,168,72); stroke-width: 0; stroke-dasharray: none; stroke-linecap: butt; stroke-dashoffset: 0; stroke-linejoin: miter; stroke-miterlimit: 4; fill: rgb(29,185,84); fill-rule: nonzero; opacity: 1;"  transform=" translate(-8.23712, -8.23712)" d="M 8.23712 0 C 12.784010000000002 0 16.47424 3.69023 16.47424 8.23712 C 16.47424 12.784010000000002 12.784010000000002 16.47424 8.23712 16.47424 C 3.6902300000000006 16.47424 0 12.784010000000002 0 8.23712 C 0 3.6902300000000006 3.69023 0 8.23712 0 z" stroke-linecap="round" />
</g>
<g transform="matrix(0.1596244623 0 0 1.909871348 91.8580359681 163.1447576007)" id="sNmKYu4S7M8ZaKMtJSrm0"  >
<path style="stroke: rgb(38,98,123); stroke-width: 0; stroke-dasharray: none; stroke-linecap: butt; stroke-dashoffset: 0; stroke-linejoin: miter; stroke-miterlimit: 4; fill: rgb(33,33,33); fill-rule: nonzero; opacity: 1;"  transform=" translate(0.000005, 0.000005)" d="M -26.58347 -26.58347 L 26.583460000000002 -26.58347 L 26.583460000000002 26.583460000000002 L -26.58347 26.583460000000002 z" stroke-linecap="round" />
</g>
</svg>